<svg xmlns="http://www.w3.org/2000/svg" viewBox="0 0 1920 1080" fill="none"><g stroke="#b4ddd8" stroke-width="1.35" opacity=".87"><path d="M959.86,488.18 L959.98,478.33 L960.37,468.50 L961.01,458.69 L961.91,448.92 L963.06,439.20 L964.47,429.52 L966.12,419.90 L968.03,410.34 L970.18,400.85 L972.58,391.44 L975.23,382.11 L978.12,372.87 L981.24,363.72 L984.61,354.68 L988.20,345.75 L992.03,336.94 L996.08,328.24 L1000.36,319.68 L1004.86,311.24 L1009.58,302.95 L1014.51,294.80 L1019.65,286.80 L1024.99,278.96 L1030.53,271.27 L1036.27,263.76 L1042.21,256.41 L1048.33,249.24 L1054.63,242.24 L1061.11,235.44 L1067.76,228.82 L1074.58,222.39 L1081.57,216.17 L1088.71,210.14 L1096.00,204.31 L1103.44,198.70 L1111.03,193.30 L1118.74,188.11 L1126.59,183.14 L1134.57,178.39 L1142.66,173.86 L1150.86,169.56 L1159.18,165.49 L1167.59,161.65 L1176.10,158.04 L1184.70,154.67 L1193.38,151.53 L1202.14,148.63 L1210.98,145.97 L1219.87,143.55 L1228.83,141.37 L1237.84,139.44 L1246.90,137.75 L1256.00,136.30 L1265.13,135.09 L1274.30,134.14 L1283.48,133.42 L1292.69,132.95 L1301.90,132.73 L1311.12,132.75 L1320.33,133.01 L1329.54,133.52 L1338.74,134.27 L1347.92,135.26 L1357.07,136.50 L1366.19,137.97 L1375.28,139.68 L1384.32,141.62 L1393.31,143.80 L1402.25,146.22 L1411.13,148.86 L1419.94,151.74 L1428.69,154.84 L1437.35,158.17 L1445.94,161.71 L1454.44,165.48 L1462.84,169.47 L1471.15,173.66 L1479.36,178.08 L1487.45,182.69 L1495.44,187.52 L1503.30,192.54 L1511.05,197.77 L1518.66,203.19 L1526.15,208.80 L1533.50,214.60 L1540.70,220.58 L1547.76,226.74 L1554.67,233.08 L1561.43,239.60 L1568.02,246.28 L1574.46,253.12 L1580.72,260.12 L1586.82,267.28 L1592.74,274.59 L1598.49,282.04 L1604.05,289.64 L1609.43,297.37 L1614.62,305.23 L1619.62,313.22 L1624.42,321.33 L1629.03,329.56 L1633.43,337.89 L1637.63,346.34 L1641.63,354.88 L1645.41,363.53 L1648.99,372.26 L1652.35,381.07 L1655.49,389.97 L1658.42,398.94 L1661.13,407.97 L1663.61,417.07 L1665.87,426.23 L1667.91,435.44 L1669.72,444.69 L1671.30,453.98 L1672.65,463.31 L1673.77,472.66 L1674.66,482.04 L1675.32,491.43 L1675.74,500.83 L1675.93,510.23 L1675.89,519.63 L1675.61,529.03 L1675.10,538.41 L1674.35,547.77 L1673.37,557.10 L1672.16,566.41 L1670.71,575.67 L1669.03,584.89 L1667.11,594.06 L1664.97,603.17 L1662.59,612.22 L1659.98,621.21 L1657.15,630.11 L1654.09,638.94 L1650.80,647.68 L1647.30,656.33 L1643.56,664.88 L1639.61,673.33 L1635.45,681.67 L1631.06,689.89 L1626.47,698.00 L1621.66,705.97 L1616.65,713.82 L1611.43,721.52 L1606.02,729.08 L1600.40,736.50 L1594.59,743.76 L1588.59,750.86 L1582.39,757.80 L1576.02,764.57 L1569.47,771.16 L1562.74,777.58 L1555.83,783.81 L1548.76,789.85 L1541.53,795.70 L1534.14,801.36 L1526.59,806.81 L1518.90,812.05 L1511.06,817.09 L1503.08,821.91 L1494.97,826.51 L1486.73,830.90 L1478.36,835.05 L1469.88,838.98 L1461.29,842.68 L1452.59,846.14 L1443.79,849.36 L1434.90,852.35 L1425.92,855.09 L1416.86,857.58 L1407.72,859.83 L1398.51,861.82 L1389.24,863.57 L1379.91,865.06 L1370.53,866.29 L1361.11,867.27 L1351.65,867.99 L1342.16,868.45 L1332.65,868.65 L1323.12,868.59 L1313.58,868.27 L1304.04,867.69 L1294.50,866.85 L1284.98,865.74 L1275.47,864.38 L1265.99,862.75 L1256.53,860.87 L1247.12,858.72 L1237.76,856.32 L1228.44,853.66 L1219.19,850.75 L1210.00,847.59 L1200.89,844.17 L1191.85,840.51 L1182.90,836.60 L1174.05,832.44 L1165.30,828.05 L1156.65,823.41 L1148.12,818.55 L1139.70,813.45 L1131.42,808.12 L1123.26,802.57 L1115.25,796.80 L1107.38,790.81 L1099.66,784.61 L1092.09,778.21 L1084.69,771.60 L1077.46,764.79 L1070.40,757.79 L1063.52,750.61 L1056.82,743.24 L1050.31,735.69 L1044.00,727.97 L1037.88,720.09 L1031.97,712.05 L1026.26,703.85 L1020.77,695.51 L1015.49,687.02 L1010.44,678.40 L1005.60,669.65 L1001.00,660.78 L996.62,651.80 L992.48,642.70 L988.58,633.51 L984.91,624.22 L981.49,614.84 L978.31,605.38 L975.38,595.84 L972.70,586.24 L970.27,576.58 L968.09,566.87 L966.16,557.12 L964.49,547.32 L963.07,537.50 L961.92,527.65 L961.01,517.79 L960.37,507.92 L959.98,498.05 L959.86,488.18"/><path d="M966.30,482.68 L966.43,472.63 L966.82,462.60 L967.47,452.60 L968.38,442.63 L969.55,432.71 L970.98,422.84 L972.67,413.03 L974.61,403.28 L976.81,393.60 L979.25,384.00 L981.95,374.49 L984.89,365.07 L988.07,355.74 L991.50,346.53 L995.17,337.42 L999.06,328.43 L1003.20,319.57 L1007.56,310.83 L1012.14,302.24 L1016.95,293.78 L1021.97,285.48 L1027.21,277.32 L1032.65,269.33 L1038.30,261.50 L1044.15,253.84 L1050.20,246.35 L1056.43,239.04 L1062.85,231.92 L1069.46,224.98 L1076.24,218.24 L1083.19,211.69 L1090.31,205.35 L1097.58,199.21 L1105.02,193.28 L1112.60,187.56 L1120.32,182.06 L1128.19,176.78 L1136.19,171.72 L1144.31,166.88 L1152.55,162.27 L1160.91,157.90 L1169.38,153.75 L1177.96,149.84 L1186.63,146.17 L1195.39,142.74 L1204.24,139.55 L1213.16,136.60 L1222.16,133.90 L1231.22,131.44 L1240.35,129.23 L1249.53,127.27 L1258.76,125.55 L1268.03,124.08 L1277.33,122.86 L1286.67,121.90 L1296.02,121.18 L1305.40,120.71 L1314.79,120.49 L1324.18,120.52 L1333.56,120.79 L1342.95,121.32 L1352.31,122.09 L1361.66,123.11 L1370.99,124.37 L1380.28,125.88 L1389.53,127.63 L1398.74,129.62 L1407.90,131.85 L1417.01,134.32 L1426.05,137.02 L1435.03,139.95 L1443.94,143.12 L1452.76,146.52 L1461.51,150.14 L1470.17,153.98 L1478.73,158.05 L1487.19,162.34 L1495.55,166.84 L1503.80,171.55 L1511.93,176.47 L1519.94,181.60 L1527.83,186.93 L1535.59,192.45 L1543.22,198.18 L1550.70,204.09 L1558.04,210.19 L1565.24,216.47 L1572.28,222.94 L1579.16,229.58 L1585.88,236.39 L1592.44,243.36 L1598.82,250.50 L1605.04,257.80 L1611.07,265.25 L1616.93,272.85 L1622.60,280.59 L1628.08,288.47 L1633.37,296.48 L1638.47,304.63 L1643.36,312.89 L1648.06,321.28 L1652.55,329.78 L1656.84,338.39 L1660.91,347.09 L1664.77,355.90 L1668.42,364.80 L1671.85,373.79 L1675.06,382.85 L1678.05,391.99 L1680.81,401.20 L1683.35,410.48 L1685.66,419.81 L1687.74,429.19 L1689.59,438.62 L1691.21,448.09 L1692.59,457.59 L1693.74,467.13 L1694.66,476.68 L1695.34,486.25 L1695.78,495.83 L1695.98,505.42 L1695.94,515.00 L1695.67,524.58 L1695.16,534.14 L1694.41,543.68 L1693.42,553.19 L1692.19,562.67 L1690.73,572.12 L1689.02,581.51 L1687.08,590.86 L1684.91,600.15 L1682.50,609.37 L1679.85,618.53 L1676.98,627.61 L1673.87,636.61 L1670.53,645.52 L1666.97,654.34 L1663.18,663.06 L1659.16,671.67 L1654.93,680.17 L1650.47,688.55 L1645.80,696.82 L1640.91,704.95 L1635.82,712.94 L1630.51,720.80 L1625.00,728.51 L1619.29,736.07 L1613.37,743.48 L1607.27,750.72 L1600.97,757.80 L1594.48,764.70 L1587.81,771.42 L1580.96,777.97 L1573.94,784.32 L1566.74,790.49 L1559.38,796.45 L1551.85,802.22 L1544.17,807.78 L1536.33,813.13 L1528.35,818.27 L1520.23,823.19 L1511.97,827.88 L1503.58,832.35 L1495.06,836.59 L1486.42,840.60 L1477.67,844.37 L1468.81,847.91 L1459.85,851.20 L1450.79,854.24 L1441.64,857.04 L1432.40,859.58 L1423.09,861.88 L1413.71,863.92 L1404.26,865.70 L1394.75,867.22 L1385.20,868.48 L1375.60,869.48 L1365.96,870.22 L1356.28,870.69 L1346.59,870.89 L1336.88,870.83 L1327.15,870.51 L1317.43,869.92 L1307.70,869.06 L1297.99,867.93 L1288.30,866.54 L1278.63,864.88 L1268.99,862.96 L1259.40,860.77 L1249.85,858.32 L1240.35,855.61 L1230.91,852.64 L1221.54,849.41 L1212.25,845.93 L1203.03,842.19 L1193.91,838.20 L1184.88,833.96 L1175.95,829.48 L1167.13,824.75 L1158.43,819.78 L1149.85,814.58 L1141.39,809.14 L1133.07,803.48 L1124.90,797.59 L1116.87,791.48 L1108.99,785.16 L1101.27,778.62 L1093.72,771.88 L1086.34,764.93 L1079.14,757.79 L1072.12,750.45 L1065.28,742.93 L1058.64,735.23 L1052.20,727.36 L1045.96,719.31 L1039.93,711.11 L1034.10,702.74 L1028.50,694.23 L1023.11,685.57 L1017.95,676.77 L1013.02,667.84 L1008.32,658.79 L1003.85,649.62 L999.63,640.34 L995.64,630.96 L991.90,621.48 L988.40,611.90 L985.16,602.25 L982.17,592.52 L979.43,582.73 L976.94,572.87 L974.72,562.96 L972.75,553.01 L971.04,543.02 L969.60,532.99 L968.41,522.95 L967.49,512.89 L966.83,502.81 L966.43,492.74 L966.30,482.68"/><path d="M1333.11,492.06 L963.04,485.46"/><path d="M944.58,502.03 L944.74,499.35 L945.22,496.71 L946.00,494.17 L947.07,491.78 L948.41,489.56 L950.00,487.57 L951.82,485.82 L953.83,484.36 L955.99,483.21 L958.27,482.39 L960.64,481.91 L963.04,481.78 L965.45,482.00 L967.81,482.56 L970.09,483.47 L972.25,484.69 L974.25,486.22 L976.07,488.03 L977.65,490.07 L978.99,492.33 L980.06,494.76 L980.83,497.32 L981.31,499.96 L981.47,502.65 L981.31,505.33 L980.84,507.96 L980.07,510.50 L979.01,512.90 L977.67,515.11 L976.09,517.11 L974.28,518.86 L972.27,520.33 L970.11,521.49 L967.83,522.32 L965.46,522.81 L963.05,522.95 L960.64,522.73 L958.27,522.17 L955.98,521.27 L953.82,520.04 L951.81,518.51 L949.99,516.70 L948.40,514.65 L947.05,512.38 L945.99,509.95 L945.21,507.38 L944.74,504.73 L944.58,502.03"/><path d="M1333.11,492.06 L971.29,406.84"/><path d="M952.92,423.19 L953.08,420.53 L953.55,417.92 L954.32,415.40 L955.39,413.03 L956.72,410.84 L958.31,408.87 L960.11,407.15 L962.11,405.71 L964.26,404.58 L966.54,403.77 L968.89,403.31 L971.29,403.19 L973.68,403.42 L976.03,403.99 L978.30,404.90 L980.45,406.13 L982.44,407.66 L984.25,409.46 L985.83,411.50 L987.16,413.75 L988.22,416.16 L989.00,418.71 L989.47,421.33 L989.63,424.00 L989.48,426.66 L989.01,429.27 L988.24,431.78 L987.19,434.15 L985.86,436.35 L984.28,438.32 L982.48,440.05 L980.48,441.49 L978.33,442.63 L976.06,443.44 L973.70,443.92 L971.31,444.04 L968.91,443.82 L966.55,443.25 L964.27,442.34 L962.11,441.11 L960.11,439.58 L958.30,437.78 L956.72,435.73 L955.38,433.48 L954.32,431.05 L953.54,428.50 L953.08,425.87 L952.92,423.19"/><path d="M1333.11,492.06 L995.51,332.73"/><path d="M977.28,348.85 L977.44,346.21 L977.90,343.62 L978.67,341.13 L979.72,338.78 L981.05,336.62 L982.62,334.67 L984.41,332.98 L986.40,331.56 L988.53,330.45 L990.79,329.66 L993.13,329.21 L995.51,329.11 L997.88,329.35 L1000.22,329.93 L1002.48,330.84 L1004.61,332.07 L1006.60,333.59 L1008.39,335.39 L1009.96,337.42 L1011.29,339.65 L1012.35,342.05 L1013.12,344.58 L1013.59,347.19 L1013.75,349.83 L1013.60,352.47 L1013.14,355.05 L1012.39,357.54 L1011.34,359.89 L1010.02,362.05 L1008.45,364.01 L1006.67,365.71 L1004.69,367.13 L1002.55,368.25 L1000.29,369.04 L997.95,369.50 L995.57,369.61 L993.19,369.38 L990.85,368.80 L988.58,367.89 L986.44,366.66 L984.45,365.14 L982.65,363.34 L981.07,361.30 L979.74,359.06 L978.68,356.65 L977.91,354.12 L977.44,351.50 L977.28,348.85"/><path d="M1333.11,492.06 L1034.38,266.43"/><path d="M1016.33,282.34 L1016.48,279.72 L1016.93,277.16 L1017.69,274.69 L1018.73,272.37 L1020.04,270.23 L1021.60,268.30 L1023.37,266.63 L1025.33,265.24 L1027.45,264.14 L1029.69,263.37 L1032.01,262.94 L1034.37,262.84 L1036.72,263.09 L1039.04,263.68 L1041.28,264.59 L1043.40,265.82 L1045.37,267.34 L1047.15,269.13 L1048.72,271.15 L1050.04,273.37 L1051.09,275.75 L1051.86,278.26 L1052.33,280.85 L1052.50,283.47 L1052.35,286.08 L1051.90,288.64 L1051.16,291.10 L1050.12,293.43 L1048.82,295.57 L1047.27,297.50 L1045.50,299.18 L1043.54,300.58 L1041.42,301.68 L1039.18,302.45 L1036.86,302.90 L1034.50,303.00 L1032.14,302.76 L1029.81,302.17 L1027.57,301.26 L1025.44,300.03 L1023.46,298.51 L1021.68,296.72 L1020.11,294.69 L1018.78,292.47 L1017.73,290.07 L1016.96,287.56 L1016.49,284.97 L1016.33,282.34"/><path d="M1333.11,492.06 L1085.89,210.81"/><path d="M1068.05,226.51 L1068.19,223.91 L1068.64,221.37 L1069.38,218.93 L1070.41,216.64 L1071.70,214.52 L1073.24,212.62 L1074.99,210.96 L1076.93,209.59 L1079.03,208.51 L1081.24,207.76 L1083.54,207.34 L1085.87,207.25 L1088.21,207.51 L1090.51,208.10 L1092.73,209.01 L1094.83,210.24 L1096.79,211.75 L1098.55,213.53 L1100.11,215.54 L1101.42,217.74 L1102.47,220.11 L1103.24,222.60 L1103.71,225.16 L1103.88,227.76 L1103.74,230.35 L1103.31,232.89 L1102.57,235.33 L1101.55,237.63 L1100.27,239.75 L1098.73,241.65 L1096.99,243.31 L1095.05,244.69 L1092.95,245.78 L1090.74,246.54 L1088.44,246.97 L1086.10,247.06 L1083.76,246.81 L1081.46,246.22 L1079.23,245.31 L1077.12,244.09 L1075.16,242.57 L1073.38,240.79 L1071.83,238.77 L1070.51,236.56 L1069.46,234.19 L1068.69,231.69 L1068.22,229.12 L1068.05,226.51"/><path d="M1333.11,492.06 L1147.56,168.12"/><path d="M1129.95,183.64 L1130.08,181.07 L1130.51,178.55 L1131.24,176.13 L1132.25,173.86 L1133.52,171.76 L1135.04,169.88 L1136.77,168.25 L1138.69,166.89 L1140.76,165.83 L1142.95,165.09 L1145.22,164.67 L1147.53,164.59 L1149.84,164.85 L1152.12,165.45 L1154.32,166.36 L1156.40,167.58 L1158.34,169.09 L1160.10,170.86 L1161.64,172.85 L1162.95,175.05 L1163.99,177.40 L1164.76,179.87 L1165.23,182.41 L1165.41,184.99 L1165.28,187.56 L1164.85,190.08 L1164.13,192.49 L1163.13,194.77 L1161.86,196.87 L1160.35,198.75 L1158.63,200.39 L1156.71,201.76 L1154.65,202.82 L1152.46,203.58 L1150.18,204.00 L1147.87,204.08 L1145.55,203.83 L1143.27,203.24 L1141.06,202.32 L1138.97,201.10 L1137.03,199.59 L1135.26,197.82 L1133.72,195.82 L1132.41,193.62 L1131.36,191.26 L1130.59,188.78 L1130.12,186.23 L1129.95,183.64"/><path d="M1333.11,492.06 L1216.51,139.99"/><path d="M1199.14,155.37 L1199.26,152.81 L1199.68,150.31 L1200.40,147.91 L1201.39,145.66 L1202.64,143.58 L1204.13,141.71 L1205.84,140.09 L1207.73,138.75 L1209.78,137.70 L1211.94,136.97 L1214.19,136.56 L1216.47,136.49 L1218.76,136.75 L1221.01,137.34 L1223.19,138.26 L1225.26,139.47 L1227.18,140.97 L1228.93,142.73 L1230.46,144.71 L1231.76,146.89 L1232.80,149.23 L1233.57,151.68 L1234.04,154.21 L1234.23,156.77 L1234.11,159.32 L1233.70,161.82 L1232.99,164.21 L1232.01,166.47 L1230.76,168.55 L1229.27,170.42 L1227.57,172.05 L1225.68,173.40 L1223.64,174.45 L1221.47,175.19 L1219.23,175.61 L1216.94,175.69 L1214.64,175.43 L1212.38,174.84 L1210.20,173.93 L1208.12,172.71 L1206.20,171.21 L1204.45,169.45 L1202.91,167.46 L1201.61,165.27 L1200.56,162.93 L1199.80,160.47 L1199.32,157.93 L1199.14,155.37"/><path d="M1333.11,492.06 L1289.69,127.36"/><path d="M1272.56,142.62 L1272.67,140.08 L1273.08,137.60 L1273.77,135.22 L1274.75,132.97 L1275.98,130.91 L1277.45,129.06 L1279.13,127.45 L1281.00,126.11 L1283.02,125.07 L1285.16,124.35 L1287.38,123.95 L1289.64,123.88 L1291.91,124.14 L1294.14,124.73 L1296.30,125.64 L1298.35,126.85 L1300.25,128.34 L1301.98,130.09 L1303.51,132.06 L1304.80,134.23 L1305.84,136.55 L1306.61,138.99 L1307.09,141.50 L1307.28,144.05 L1307.17,146.58 L1306.77,149.06 L1306.08,151.44 L1305.11,153.69 L1303.89,155.75 L1302.42,157.61 L1300.74,159.22 L1298.88,160.56 L1296.86,161.61 L1294.72,162.34 L1292.50,162.75 L1290.24,162.83 L1287.97,162.57 L1285.73,161.99 L1283.56,161.08 L1281.50,159.87 L1279.59,158.37 L1277.86,156.62 L1276.33,154.64 L1275.03,152.47 L1273.99,150.14 L1273.22,147.69 L1272.74,145.17 L1272.56,142.62"/><path d="M1333.11,492.06 L1363.96,130.49"/><path d="M1347.05,145.68 L1347.15,143.16 L1347.55,140.69 L1348.23,138.32 L1349.18,136.08 L1350.40,134.03 L1351.85,132.18 L1353.51,130.58 L1355.35,129.26 L1357.35,128.22 L1359.46,127.50 L1361.66,127.10 L1363.90,127.03 L1366.14,127.29 L1368.35,127.87 L1370.49,128.78 L1372.53,129.98 L1374.42,131.47 L1376.14,133.21 L1377.65,135.17 L1378.94,137.33 L1379.98,139.64 L1380.74,142.06 L1381.23,144.57 L1381.43,147.10 L1381.33,149.62 L1380.94,152.09 L1380.27,154.46 L1379.32,156.69 L1378.11,158.75 L1376.67,160.60 L1375.01,162.20 L1373.17,163.54 L1371.18,164.58 L1369.06,165.31 L1366.87,165.72 L1364.62,165.79 L1362.37,165.54 L1360.16,164.95 L1358.01,164.05 L1355.97,162.85 L1354.07,161.36 L1352.35,159.62 L1350.83,157.65 L1349.54,155.48 L1348.50,153.17 L1347.73,150.73 L1347.24,148.22 L1347.05,145.68"/><path d="M1333.11,492.06 L1436.24,149.04"/><path d="M1419.54,164.20 L1419.63,161.68 L1420.01,159.22 L1420.68,156.85 L1421.62,154.63 L1422.81,152.58 L1424.24,150.74 L1425.88,149.14 L1427.70,147.82 L1429.68,146.78 L1431.77,146.06 L1433.94,145.66 L1436.16,145.58 L1438.39,145.84 L1440.58,146.42 L1442.70,147.32 L1444.72,148.52 L1446.60,149.99 L1448.31,151.73 L1449.82,153.68 L1451.11,155.83 L1452.14,158.13 L1452.91,160.55 L1453.40,163.04 L1453.60,165.57 L1453.51,168.08 L1453.14,170.54 L1452.48,172.90 L1451.55,175.13 L1450.36,177.18 L1448.93,179.03 L1447.30,180.63 L1445.48,181.96 L1443.50,183.00 L1441.41,183.73 L1439.24,184.14 L1437.02,184.22 L1434.79,183.97 L1432.59,183.39 L1430.46,182.49 L1428.43,181.30 L1426.54,179.82 L1424.83,178.08 L1423.32,176.12 L1422.03,173.97 L1420.99,171.66 L1420.22,169.23 L1419.74,166.73 L1419.54,164.20"/><path d="M1333.11,492.06 L1503.61,182.05"/><path d="M1487.08,197.23 L1487.17,194.71 L1487.54,192.25 L1488.19,189.89 L1489.11,187.66 L1490.29,185.61 L1491.71,183.77 L1493.33,182.18 L1495.13,180.85 L1497.09,179.81 L1499.16,179.08 L1501.32,178.68 L1503.52,178.60 L1505.73,178.85 L1507.90,179.43 L1510.02,180.32 L1512.02,181.51 L1513.89,182.98 L1515.60,184.70 L1517.10,186.65 L1518.38,188.79 L1519.41,191.09 L1520.18,193.50 L1520.68,195.99 L1520.89,198.51 L1520.81,201.02 L1520.44,203.48 L1519.79,205.84 L1518.88,208.06 L1517.70,210.12 L1516.30,211.96 L1514.68,213.56 L1512.88,214.90 L1510.92,215.94 L1508.85,216.68 L1506.69,217.09 L1504.49,217.18 L1502.28,216.93 L1500.09,216.36 L1497.98,215.47 L1495.96,214.27 L1494.09,212.80 L1492.38,211.07 L1490.87,209.12 L1489.59,206.97 L1488.55,204.67 L1487.78,202.25 L1487.29,199.75 L1487.08,197.23"/><path d="M1333.11,492.06 L1563.39,228.06"/><path d="M1547.01,243.30 L1547.09,240.78 L1547.45,238.32 L1548.09,235.95 L1549.00,233.72 L1550.17,231.67 L1551.57,229.82 L1553.18,228.22 L1554.97,226.89 L1556.91,225.84 L1558.96,225.11 L1561.11,224.70 L1563.29,224.61 L1565.49,224.85 L1567.65,225.42 L1569.76,226.31 L1571.75,227.49 L1573.62,228.96 L1575.31,230.68 L1576.81,232.62 L1578.09,234.76 L1579.13,237.06 L1579.90,239.47 L1580.40,241.95 L1580.61,244.47 L1580.54,246.98 L1580.18,249.44 L1579.55,251.81 L1578.64,254.04 L1577.48,256.09 L1576.09,257.94 L1574.49,259.55 L1572.70,260.89 L1570.76,261.94 L1568.70,262.68 L1566.56,263.10 L1564.37,263.19 L1562.17,262.95 L1560.00,262.39 L1557.89,261.51 L1555.89,260.32 L1554.02,258.85 L1552.31,257.13 L1550.81,255.18 L1549.53,253.03 L1548.49,250.73 L1547.72,248.32 L1547.22,245.82 L1547.01,243.30"/><path d="M1333.11,492.06 L1613.24,285.16"/><path d="M1596.96,300.49 L1597.03,297.97 L1597.39,295.50 L1598.02,293.13 L1598.93,290.89 L1600.08,288.82 L1601.47,286.97 L1603.07,285.36 L1604.85,284.01 L1606.78,282.96 L1608.82,282.22 L1610.96,281.79 L1613.13,281.70 L1615.32,281.94 L1617.48,282.50 L1619.57,283.38 L1621.57,284.56 L1623.42,286.02 L1625.12,287.73 L1626.62,289.68 L1627.89,291.81 L1628.93,294.11 L1629.70,296.52 L1630.21,299.01 L1630.43,301.53 L1630.36,304.05 L1630.01,306.51 L1629.38,308.89 L1628.49,311.12 L1627.34,313.19 L1625.96,315.05 L1624.36,316.66 L1622.59,318.01 L1620.66,319.08 L1618.61,319.83 L1616.48,320.26 L1614.30,320.36 L1612.11,320.13 L1609.94,319.57 L1607.84,318.69 L1605.84,317.51 L1603.98,316.05 L1602.28,314.33 L1600.78,312.38 L1599.50,310.24 L1598.46,307.93 L1597.68,305.51 L1597.18,303.02 L1596.96,300.49"/><path d="M1333.11,492.06 L1651.18,351.03"/><path d="M1634.97,366.49 L1635.03,363.96 L1635.38,361.48 L1636.01,359.10 L1636.91,356.85 L1638.06,354.77 L1639.44,352.90 L1641.03,351.28 L1642.80,349.92 L1644.73,348.85 L1646.77,348.10 L1648.89,347.66 L1651.07,347.56 L1653.25,347.79 L1655.40,348.34 L1657.50,349.21 L1659.49,350.39 L1661.34,351.84 L1663.04,353.56 L1664.54,355.50 L1665.81,357.64 L1666.85,359.94 L1667.63,362.36 L1668.14,364.85 L1668.36,367.39 L1668.30,369.91 L1667.96,372.39 L1667.33,374.77 L1666.44,377.02 L1665.30,379.10 L1663.92,380.97 L1662.34,382.60 L1660.57,383.97 L1658.64,385.04 L1656.60,385.80 L1654.48,386.24 L1652.30,386.35 L1650.11,386.13 L1647.95,385.58 L1645.85,384.71 L1643.86,383.54 L1641.99,382.08 L1640.30,380.36 L1638.79,378.41 L1637.51,376.26 L1636.47,373.96 L1635.69,371.53 L1635.19,369.03 L1634.97,366.49"/><path d="M1333.11,492.06 L1675.67,423.05"/><path d="M1659.48,438.68 L1659.54,436.13 L1659.89,433.64 L1660.51,431.24 L1661.41,428.97 L1662.55,426.88 L1663.93,424.99 L1665.52,423.35 L1667.29,421.98 L1669.22,420.90 L1671.26,420.13 L1673.38,419.68 L1675.56,419.56 L1677.74,419.78 L1679.89,420.33 L1681.99,421.19 L1683.98,422.36 L1685.84,423.82 L1687.53,425.53 L1689.03,427.48 L1690.32,429.62 L1691.36,431.93 L1692.14,434.36 L1692.65,436.86 L1692.87,439.41 L1692.82,441.95 L1692.48,444.44 L1691.86,446.84 L1690.97,449.10 L1689.83,451.20 L1688.45,453.08 L1686.87,454.73 L1685.10,456.11 L1683.18,457.20 L1681.14,457.98 L1679.01,458.43 L1676.84,458.56 L1674.65,458.34 L1672.49,457.80 L1670.39,456.94 L1668.39,455.77 L1666.52,454.31 L1664.82,452.59 L1663.32,450.64 L1662.03,448.49 L1660.99,446.17 L1660.21,443.74 L1659.70,441.23 L1659.48,438.68"/><path d="M1333.11,492.06 L1685.66,498.35"/><path d="M1669.44,514.17 L1669.50,511.61 L1669.85,509.10 L1670.47,506.68 L1671.37,504.39 L1672.52,502.28 L1673.90,500.37 L1675.49,498.71 L1677.27,497.32 L1679.19,496.22 L1681.24,495.44 L1683.37,494.97 L1685.55,494.85 L1687.73,495.05 L1689.89,495.59 L1691.99,496.45 L1693.99,497.62 L1695.85,499.08 L1697.55,500.79 L1699.06,502.74 L1700.34,504.90 L1701.39,507.21 L1702.17,509.65 L1702.68,512.17 L1702.91,514.73 L1702.86,517.29 L1702.51,519.79 L1701.89,522.21 L1701.01,524.50 L1699.86,526.61 L1698.49,528.52 L1696.90,530.19 L1695.13,531.59 L1693.20,532.69 L1691.16,533.48 L1689.03,533.95 L1686.85,534.09 L1684.65,533.89 L1682.49,533.35 L1680.38,532.49 L1678.38,531.32 L1676.51,529.87 L1674.80,528.15 L1673.30,526.19 L1672.01,524.03 L1670.96,521.71 L1670.18,519.26 L1669.67,516.74 L1669.44,514.17"/><path d="M1333.11,492.06 L1680.62,573.91"/><path d="M1664.32,589.93 L1664.38,587.35 L1664.73,584.82 L1665.36,582.38 L1666.26,580.07 L1667.42,577.93 L1668.81,576.01 L1670.40,574.33 L1672.19,572.91 L1674.12,571.80 L1676.18,570.99 L1678.32,570.52 L1680.50,570.38 L1682.70,570.57 L1684.87,571.10 L1686.98,571.96 L1688.98,573.13 L1690.86,574.58 L1692.56,576.31 L1694.07,578.26 L1695.36,580.42 L1696.41,582.75 L1697.20,585.20 L1697.71,587.74 L1697.94,590.32 L1697.88,592.89 L1697.54,595.42 L1696.92,597.86 L1696.02,600.17 L1694.88,602.31 L1693.49,604.24 L1691.90,605.93 L1690.12,607.34 L1688.19,608.47 L1686.13,609.28 L1683.99,609.76 L1681.80,609.91 L1679.60,609.72 L1677.42,609.19 L1675.31,608.34 L1673.30,607.17 L1671.42,605.71 L1669.71,603.99 L1668.19,602.02 L1666.90,599.86 L1665.85,597.52 L1665.06,595.06 L1664.55,592.52 L1664.32,589.93"/><path d="M1333.11,492.06 L1660.57,646.61"/><path d="M1644.16,662.85 L1644.22,660.25 L1644.58,657.69 L1645.21,655.23 L1646.12,652.89 L1647.28,650.74 L1648.68,648.79 L1650.29,647.08 L1652.09,645.65 L1654.04,644.51 L1656.11,643.69 L1658.26,643.20 L1660.46,643.05 L1662.67,643.24 L1664.85,643.76 L1666.97,644.61 L1668.99,645.78 L1670.87,647.24 L1672.59,648.97 L1674.10,650.93 L1675.40,653.11 L1676.45,655.45 L1677.24,657.92 L1677.76,660.47 L1677.99,663.07 L1677.93,665.67 L1677.58,668.22 L1676.95,670.68 L1676.05,673.01 L1674.89,675.18 L1673.50,677.13 L1671.89,678.84 L1670.10,680.28 L1668.15,681.42 L1666.08,682.25 L1663.93,682.75 L1661.73,682.91 L1659.51,682.73 L1657.32,682.20 L1655.20,681.35 L1653.17,680.19 L1651.28,678.73 L1649.56,676.99 L1648.04,675.02 L1646.74,672.84 L1645.69,670.50 L1644.90,668.02 L1644.38,665.46 L1644.16,662.85"/><path d="M1333.11,492.06 L1626.14,713.38"/><path d="M1609.57,729.84 L1609.64,727.21 L1610.00,724.63 L1610.64,722.14 L1611.56,719.79 L1612.74,717.61 L1614.15,715.63 L1615.78,713.91 L1617.59,712.45 L1619.56,711.30 L1621.64,710.46 L1623.81,709.95 L1626.03,709.79 L1628.26,709.97 L1630.46,710.49 L1632.59,711.34 L1634.63,712.51 L1636.52,713.97 L1638.25,715.70 L1639.77,717.68 L1641.08,719.87 L1642.13,722.22 L1642.92,724.71 L1643.44,727.28 L1643.66,729.91 L1643.60,732.53 L1643.25,735.10 L1642.61,737.59 L1641.70,739.95 L1640.53,742.13 L1639.12,744.11 L1637.50,745.84 L1635.69,747.30 L1633.72,748.46 L1631.64,749.31 L1629.46,749.82 L1627.24,749.99 L1625.01,749.82 L1622.81,749.30 L1620.67,748.45 L1618.63,747.29 L1616.73,745.82 L1614.99,744.08 L1613.46,742.10 L1612.15,739.91 L1611.10,737.55 L1610.30,735.05 L1609.79,732.47 L1609.57,729.84"/><path d="M1333.11,492.06 L1578.55,771.29"/><path d="M1561.79,787.96 L1561.86,785.31 L1562.23,782.70 L1562.89,780.19 L1563.82,777.81 L1565.01,775.60 L1566.44,773.61 L1568.09,771.86 L1569.92,770.38 L1571.91,769.21 L1574.02,768.36 L1576.21,767.84 L1578.45,767.67 L1580.70,767.84 L1582.91,768.35 L1585.07,769.20 L1587.11,770.37 L1589.02,771.84 L1590.76,773.58 L1592.30,775.57 L1593.61,777.77 L1594.67,780.14 L1595.46,782.65 L1595.98,785.24 L1596.20,787.89 L1596.13,790.53 L1595.76,793.13 L1595.11,795.64 L1594.19,798.02 L1593.00,800.23 L1591.58,802.23 L1589.94,803.99 L1588.11,805.47 L1586.12,806.65 L1584.02,807.51 L1581.82,808.03 L1579.58,808.21 L1577.33,808.05 L1575.10,807.54 L1572.94,806.69 L1570.89,805.52 L1568.97,804.05 L1567.23,802.30 L1565.69,800.31 L1564.37,798.10 L1563.31,795.72 L1562.52,793.21 L1562.01,790.61 L1561.79,787.96"/><path d="M1333.11,492.06 L1519.62,817.67"/><path d="M1502.64,834.53 L1502.72,831.86 L1503.10,829.23 L1503.77,826.70 L1504.72,824.29 L1505.93,822.06 L1507.38,820.05 L1509.05,818.28 L1510.91,816.79 L1512.92,815.60 L1515.05,814.73 L1517.27,814.20 L1519.53,814.02 L1521.80,814.18 L1524.04,814.69 L1526.21,815.54 L1528.28,816.72 L1530.20,818.19 L1531.95,819.94 L1533.50,821.94 L1534.82,824.16 L1535.88,826.55 L1536.68,829.07 L1537.19,831.69 L1537.40,834.35 L1537.33,837.02 L1536.95,839.64 L1536.29,842.17 L1535.34,844.58 L1534.14,846.81 L1532.70,848.83 L1531.03,850.60 L1529.18,852.10 L1527.17,853.30 L1525.04,854.18 L1522.82,854.71 L1520.56,854.90 L1518.28,854.74 L1516.04,854.23 L1513.86,853.39 L1511.79,852.21 L1509.85,850.74 L1508.10,848.98 L1506.55,846.98 L1505.22,844.76 L1504.16,842.36 L1503.36,839.83 L1502.85,837.20 L1502.64,834.53"/><path d="M1333.11,492.06 L1451.74,850.27"/><path d="M1434.52,867.30 L1434.62,864.60 L1435.01,861.96 L1435.70,859.40 L1436.66,856.97 L1437.89,854.73 L1439.37,852.69 L1441.06,850.90 L1442.94,849.40 L1444.97,848.19 L1447.13,847.32 L1449.37,846.78 L1451.66,846.59 L1453.95,846.75 L1456.22,847.26 L1458.41,848.11 L1460.49,849.29 L1462.43,850.77 L1464.20,852.53 L1465.75,854.54 L1467.08,856.77 L1468.15,859.18 L1468.94,861.72 L1469.45,864.35 L1469.66,867.04 L1469.57,869.72 L1469.19,872.37 L1468.51,874.92 L1467.55,877.35 L1466.32,879.60 L1464.86,881.64 L1463.17,883.43 L1461.29,884.95 L1459.26,886.16 L1457.10,887.04 L1454.86,887.59 L1452.57,887.79 L1450.27,887.63 L1448.00,887.12 L1445.80,886.27 L1443.71,885.10 L1441.76,883.61 L1439.99,881.85 L1438.43,879.83 L1437.10,877.59 L1436.03,875.18 L1435.24,872.63 L1434.73,869.99 L1434.52,867.30"/><path d="M1333.11,492.06 L1377.79,867.38"/><path d="M1360.33,884.53 L1360.43,881.82 L1360.84,879.16 L1361.54,876.58 L1362.53,874.14 L1363.78,871.88 L1365.27,869.83 L1366.99,868.03 L1368.89,866.51 L1370.96,865.29 L1373.14,864.41 L1375.41,863.86 L1377.72,863.67 L1380.04,863.83 L1382.33,864.34 L1384.54,865.20 L1386.64,866.38 L1388.60,867.87 L1390.37,869.64 L1391.94,871.66 L1393.27,873.90 L1394.34,876.32 L1395.14,878.88 L1395.64,881.53 L1395.85,884.23 L1395.75,886.94 L1395.35,889.60 L1394.65,892.17 L1393.68,894.61 L1392.43,896.88 L1390.94,898.93 L1389.23,900.74 L1387.33,902.27 L1385.27,903.49 L1383.08,904.38 L1380.82,904.94 L1378.50,905.14 L1376.18,904.98 L1373.88,904.47 L1371.66,903.62 L1369.55,902.44 L1367.59,900.95 L1365.81,899.17 L1364.24,897.14 L1362.90,894.90 L1361.83,892.47 L1361.03,889.90 L1360.53,887.24 L1360.33,884.53"/><path d="M1333.11,492.06 L1301.04,867.94"/><path d="M1283.33,885.19 L1283.45,882.47 L1283.87,879.79 L1284.59,877.20 L1285.59,874.74 L1286.86,872.47 L1288.38,870.41 L1290.12,868.60 L1292.05,867.07 L1294.14,865.85 L1296.35,864.96 L1298.64,864.41 L1300.98,864.22 L1303.32,864.38 L1305.63,864.89 L1307.86,865.75 L1309.98,866.94 L1311.95,868.43 L1313.74,870.21 L1315.32,872.25 L1316.66,874.50 L1317.73,876.93 L1318.53,879.50 L1319.02,882.17 L1319.22,884.88 L1319.11,887.60 L1318.70,890.28 L1317.99,892.87 L1316.99,895.32 L1315.72,897.60 L1314.21,899.66 L1312.48,901.48 L1310.55,903.01 L1308.46,904.24 L1306.26,905.14 L1303.96,905.70 L1301.62,905.90 L1299.27,905.74 L1296.96,905.23 L1294.72,904.38 L1292.59,903.19 L1290.61,901.69 L1288.82,899.90 L1287.24,897.86 L1285.90,895.61 L1284.82,893.17 L1284.03,890.59 L1283.53,887.91 L1283.33,885.19"/><path d="M1333.11,492.06 L1224.99,851.69"/><path d="M1207.06,868.98 L1207.18,866.24 L1207.62,863.55 L1208.35,860.96 L1209.37,858.50 L1210.67,856.21 L1212.21,854.15 L1213.97,852.33 L1215.92,850.80 L1218.04,849.58 L1220.27,848.69 L1222.59,848.14 L1224.95,847.95 L1227.31,848.11 L1229.64,848.63 L1231.89,849.49 L1234.02,850.69 L1236.01,852.19 L1237.81,853.98 L1239.39,856.02 L1240.73,858.29 L1241.81,860.73 L1242.60,863.31 L1243.10,865.98 L1243.29,868.71 L1243.17,871.44 L1242.74,874.12 L1242.01,876.72 L1241.00,879.18 L1239.71,881.47 L1238.18,883.54 L1236.42,885.36 L1234.47,886.89 L1232.36,888.12 L1230.13,889.02 L1227.81,889.58 L1225.44,889.78 L1223.08,889.62 L1220.74,889.11 L1218.48,888.24 L1216.34,887.05 L1214.35,885.54 L1212.54,883.75 L1210.95,881.70 L1209.61,879.43 L1208.53,876.98 L1207.74,874.39 L1207.25,871.71 L1207.06,868.98"/><path d="M1333.11,492.06 L1153.22,819.16"/><path d="M1135.09,836.44 L1135.22,833.70 L1135.67,831.01 L1136.42,828.41 L1137.46,825.95 L1138.77,823.66 L1140.33,821.59 L1142.11,819.78 L1144.08,818.25 L1146.22,817.03 L1148.47,816.14 L1150.81,815.60 L1153.19,815.41 L1155.57,815.58 L1157.91,816.11 L1160.18,816.98 L1162.33,818.18 L1164.32,819.69 L1166.13,821.48 L1167.72,823.53 L1169.07,825.80 L1170.14,828.25 L1170.94,830.84 L1171.43,833.52 L1171.61,836.25 L1171.48,838.98 L1171.04,841.67 L1170.30,844.27 L1169.27,846.73 L1167.96,849.02 L1166.41,851.09 L1164.63,852.91 L1162.66,854.45 L1160.53,855.68 L1158.27,856.57 L1155.94,857.12 L1153.55,857.32 L1151.16,857.16 L1148.81,856.64 L1146.54,855.77 L1144.39,854.57 L1142.38,853.05 L1140.57,851.25 L1138.97,849.20 L1137.62,846.92 L1136.55,844.46 L1135.76,841.87 L1135.27,839.18 L1135.09,836.44"/><path d="M1333.11,492.06 L1089.16,771.74"/><path d="M1070.86,788.96 L1071.01,786.22 L1071.46,783.53 L1072.23,780.93 L1073.28,778.47 L1074.60,776.19 L1076.18,774.13 L1077.98,772.32 L1079.97,770.80 L1082.12,769.59 L1084.39,768.71 L1086.74,768.17 L1089.14,767.99 L1091.54,768.17 L1093.89,768.70 L1096.17,769.58 L1098.33,770.78 L1100.33,772.30 L1102.15,774.10 L1103.74,776.16 L1105.09,778.43 L1106.17,780.88 L1106.95,783.47 L1107.44,786.15 L1107.61,788.88 L1107.48,791.62 L1107.03,794.30 L1106.27,796.90 L1105.23,799.36 L1103.91,801.64 L1102.34,803.71 L1100.54,805.52 L1098.56,807.05 L1096.41,808.27 L1094.14,809.16 L1091.78,809.71 L1089.38,809.89 L1086.98,809.72 L1084.62,809.20 L1082.33,808.32 L1080.17,807.11 L1078.16,805.59 L1076.34,803.79 L1074.74,801.73 L1073.39,799.45 L1072.31,796.99 L1071.52,794.39 L1071.04,791.70 L1070.86,788.96"/><path d="M1333.11,492.06 L1035.91,711.58"/><path d="M1017.49,728.70 L1017.64,725.97 L1018.10,723.28 L1018.88,720.69 L1019.94,718.24 L1021.28,715.97 L1022.86,713.92 L1024.67,712.12 L1026.68,710.61 L1028.84,709.41 L1031.12,708.54 L1033.49,708.01 L1035.89,707.84 L1038.30,708.03 L1040.67,708.57 L1042.95,709.45 L1045.12,710.67 L1047.13,712.19 L1048.94,714.00 L1050.54,716.05 L1051.89,718.33 L1052.96,720.78 L1053.75,723.36 L1054.23,726.04 L1054.40,728.77 L1054.25,731.50 L1053.79,734.18 L1053.03,736.76 L1051.97,739.22 L1050.64,741.49 L1049.06,743.54 L1047.26,745.35 L1045.26,746.87 L1043.10,748.08 L1040.81,748.96 L1038.45,749.49 L1036.04,749.67 L1033.63,749.49 L1031.25,748.95 L1028.96,748.07 L1026.79,746.85 L1024.77,745.33 L1022.95,743.52 L1021.35,741.46 L1019.99,739.18 L1018.92,736.72 L1018.13,734.12 L1017.65,731.43 L1017.49,728.70"/><path d="M1333.11,492.06 L996.02,641.53"/><path d="M977.53,658.50 L977.69,655.78 L978.16,653.11 L978.93,650.53 L980.00,648.10 L981.35,645.84 L982.94,643.80 L984.76,642.02 L986.77,640.52 L988.94,639.34 L991.23,638.48 L993.60,637.97 L996.01,637.81 L998.42,638.01 L1000.79,638.55 L1003.08,639.45 L1005.25,640.67 L1007.26,642.19 L1009.08,644.00 L1010.67,646.05 L1012.02,648.33 L1013.09,650.77 L1013.87,653.35 L1014.35,656.03 L1014.51,658.74 L1014.36,661.46 L1013.90,664.13 L1013.13,666.70 L1012.07,669.14 L1010.73,671.40 L1009.14,673.44 L1007.33,675.23 L1005.32,676.73 L1003.16,677.93 L1000.87,678.79 L998.49,679.31 L996.08,679.48 L993.66,679.29 L991.29,678.74 L988.99,677.85 L986.82,676.63 L984.80,675.10 L982.97,673.29 L981.37,671.23 L980.02,668.95 L978.95,666.50 L978.17,663.91 L977.69,661.23 L977.53,658.50"/><path d="M1333.11,492.06 L971.37,564.94"/><path d="M952.87,581.72 L953.03,579.02 L953.50,576.36 L954.28,573.80 L955.35,571.38 L956.70,569.15 L958.29,567.13 L960.11,565.37 L962.13,563.89 L964.30,562.72 L966.59,561.88 L968.96,561.38 L971.37,561.23 L973.78,561.44 L976.15,562.00 L978.43,562.90 L980.60,564.12 L982.61,565.65 L984.42,567.46 L986.02,569.51 L987.36,571.78 L988.43,574.22 L989.21,576.79 L989.68,579.45 L989.84,582.15 L989.69,584.85 L989.22,587.50 L988.45,590.06 L987.38,592.48 L986.05,594.72 L984.46,596.74 L982.64,598.51 L980.63,599.99 L978.47,601.17 L976.18,602.02 L973.80,602.53 L971.39,602.68 L968.97,602.48 L966.60,601.92 L964.30,601.03 L962.13,599.80 L960.11,598.27 L958.29,596.46 L956.69,594.40 L955.35,592.13 L954.28,589.68 L953.50,587.10 L953.03,584.43 L952.87,581.72"/><path d="M1455.29,893.85 L1319.75,497.22"/><path d="M1608.88,919.57 L1347.00,486.70"/><path d="M1108.97,897.04 L1319.75,497.22"/><path d="M1199.48,924.09 L1347.00,486.70"/><path d="M1573.87,910.01 L1099.12,914.93"/></g></svg>